<?xml version="1.0" encoding="UTF-8"?>
<svg id="Layer_1" xmlns="http://www.w3.org/2000/svg" version="1.1" viewBox="0 0 392.1 144.7">
  <!-- Generator: Adobe Illustrator 29.4.0, SVG Export Plug-In . SVG Version: 2.1.0 Build 152)  -->
  <defs>
    <style>
      .st0 {
        fill: #1d1d1b;
      }

      .st1 {
        fill: #f9b200;
      }
    </style>
  </defs>
  <path class="st0" d="M116,110.6l29.8-5.5,3,16.6-47.6,8.7-16.5-89.9,47.6-8.7,3,16.6-29.8,5.5,3.7,20,24.8-4.5,3.1,16.6-24.8,4.5s3.7,20.1,3.7,20.1Z"/>
  <path class="st0" d="M244.8,97.9l25.5,5.4-3,14.2-40.7-8.6,16.2-76.9,40.7,8.6-3,14.2-25.5-5.4-3.6,17,21.2,4.5-3,14.2-21.2-4.5-3.6,17.1h0Z"/>
  <path class="st0" d="M366.5,88.7h26v14.5h-41.6V24.7h41.6v14.5h-26v17.4h21.7v14.5h-21.7v17.4h0Z"/>
  <path class="st0" d="M50.4,91.3h-12v-23.6h37.3v51.5c0,4.8-1.8,8.9-5.5,12.3-3.6,3.4-8,5.1-13.1,5.1H19.9c-5.1,0-9.4-1.6-13.1-5-3.7-3.4-5.6-7.5-5.6-12.3V26.8c-.2-4.8,1.7-8.9,5.4-12.3,3.6-3.4,8-5,13.1-5.1h37.2c5.1,0,9.4,1.6,13.1,5s5.6,7.5,5.6,12.3v25.7h-25.3v-19.5h-24v80.3h24.1s0-21.9,0-21.9Z"/>
  <path class="st1" d="M49.4,89.8h-12v-23.6h37.3v51.5c0,4.8-1.8,8.9-5.5,12.3-3.7,3.4-8,5.1-13.1,5.1H18.8c-5.1,0-9.4-1.6-13.1-5-3.7-3.4-5.6-7.5-5.6-12.3V25.2C0,20.4,1.8,16.2,5.5,12.8c3.6-3.4,8-5,13.1-5.1h37.2c5.1,0,9.4,1.6,13.1,5,3.7,3.4,5.6,7.5,5.6,12.3v25.7h-25.3v-19.5h-24v80.3h24.1v-21.9h0Z"/>
  <path class="st1" d="M115,109.1l29.8-5.5,3,16.6-47.6,8.7-16.5-89.9,47.6-8.7,3,16.6-29.8,5.5,3.7,20,24.8-4.5,3.1,16.6-24.8,4.5s3.7,20.1,3.7,20.1Z"/>
  <path class="st0" d="M203.7,1.6h28.7l-27.4,142.4h-37.6L139.6,1.7h28.6c5.2,26.1,11.1,64.5,17.9,115.2,6.6-50.8,12.5-89.2,17.5-115.3h.1Z"/>
  <path class="st1" d="M202.7,0h28.7l-27.4,142.4h-37.6L138.6.1h28.6c5.2,26.1,11.1,64.5,17.9,115.2C191.7,64.5,197.6,26.1,202.6,0h.1Z"/>
  <path class="st0" d="M315.1,36.8h-26.2V15.8h55.5l-27.8,92.6h75.3c0-.1,0,20.9,0,20.9l-104.6.2,27.7-92.7h0Z"/>
  <path class="st1" d="M314.1,35.2h-26.2V14.2h55.5l-27.8,92.6h75.3c0-.1,0,20.9,0,20.9l-104.6.2,27.7-92.7h0Z"/>
  <path class="st1" d="M243.8,96.3l25.5,5.4-3,14.2-40.7-8.6,16.2-76.9,40.7,8.6-3,14.2-25.5-5.4-3.6,17,21.2,4.5-3,14.2-21.2-4.5-3.6,17.1h0Z"/>
  <path class="st1" d="M365.5,87.1h26v14.5h-41.6V23.1h41.6v14.5h-26.1v17.4h21.7v14.6h-21.7v17.4h.1Z"/>
</svg>