<?xml version="1.0" encoding="UTF-8"?>
<svg id="Layer_1" xmlns="http://www.w3.org/2000/svg" version="1.1" viewBox="0 0 410.2 214.5">
  <!-- Generator: Adobe Illustrator 29.4.0, SVG Export Plug-In . SVG Version: 2.1.0 Build 152)  -->
  <defs>
    <style>
      .st0 {
        fill: #f9b200;
      }

      .st1 {
        fill: #1d1d1b;
      }
    </style>
  </defs>
  <path class="st0" d="M406.2,147.7s3.1-.3,3.8-2c0,0,2.2-3.1-7.7-2.7,0,0-15.7-.7-28.8-.5-13.1.2-34.2,1.8-44.4,3.3-10.2,1.4-44.1,8.1-51.6,9.6-7.5,1.5-81.6,21.8-87.6,23.5-6,1.7-14,4.1-20,5.5-6,1.5-11.3,4.8-11.4,9.3,0,0-.7,11.5,19,11.4,0,0,34.7-9.5,41.9-11.7,7.2-2.2,75.7-22.7,89.2-25.5,13.5-2.8,88.8-18.7,97.6-20.2Z"/>
  <path class="st1" d="M115.7,110.3l29.7-5.5,3,16.6-47.5,8.7-16.5-89.7,47.5-8.7,3,16.6-29.7,5.5,3.7,19.9,24.7-4.5,3.1,16.6-24.7,4.5,3.7,20Z"/>
  <path class="st1" d="M244.2,97.6l25.4,5.4-3,14.2-40.6-8.6,16.2-76.7,40.6,8.6-3,14.2-25.4-5.4-3.6,17,21.1,4.5-3,14.2-21.1-4.5-3.6,17.1Z"/>
  <path class="st1" d="M365.5,88.5h25.9s0,14.5,0,14.5h-41.5s0-78.4,0-78.4h41.5s0,14.5,0,14.5h-25.9s0,17.4,0,17.4h21.6s0,14.5,0,14.5h-21.6s0,17.4,0,17.4Z"/>
  <path class="st1" d="M50.3,91.1h-12s0-23.5,0-23.5h37.2c0,0,0,51.4,0,51.4,0,4.8-1.8,8.9-5.5,12.3-3.6,3.4-8,5.1-13.1,5.1H19.8c-5.1,0-9.4-1.6-13.1-5-3.7-3.4-5.6-7.5-5.6-12.3V26.7c-.2-4.8,1.7-8.9,5.4-12.3,3.6-3.4,8-5,13.1-5.1h37.1c5.1,0,9.4,1.6,13.1,5,3.7,3.4,5.6,7.5,5.6,12.3v25.6s-25.2,0-25.2,0v-19.4s-23.9,0-23.9,0v80.1c.1,0,24,0,24,0v-21.8Z"/>
  <path class="st0" d="M49.3,89.6h-12s0-23.5,0-23.5h37.2c0,0,0,51.4,0,51.4,0,4.8-1.8,8.9-5.5,12.3-3.7,3.4-8,5.1-13.1,5.1H18.8c-5.1,0-9.4-1.6-13.1-5-3.7-3.4-5.6-7.5-5.6-12.3V25.1C0,20.3,1.8,16.2,5.5,12.8c3.6-3.4,8-5,13.1-5.1h37.1c5.1,0,9.4,1.6,13.1,5,3.7,3.4,5.6,7.5,5.6,12.3v25.6s-25.2,0-25.2,0v-19.4s-23.9,0-23.9,0v80.1c.1,0,24,0,24,0v-21.8Z"/>
  <path class="st0" d="M114.7,108.8l29.7-5.5,3,16.6-47.5,8.7-16.5-89.7,47.5-8.7,3,16.6-29.7,5.5,3.7,19.9,24.7-4.5,3.1,16.6-24.7,4.5,3.7,20Z"/>
  <path class="st1" d="M203.2,1.6h28.6s-27.3,142-27.3,142h-37.5c0,0-27.8-141.9-27.8-141.9h28.5c5.2,26,11.1,64.3,17.9,114.9,6.6-50.7,12.5-89,17.5-115Z"/>
  <path class="st0" d="M202.2,0h28.6s-27.3,142-27.3,142h-37.5c0,0-27.8-141.9-27.8-141.9h28.5c5.2,26,11.1,64.3,17.9,114.9,6.6-50.7,12.5-89,17.5-115Z"/>
  <path class="st1" d="M314.3,36.7h-26.1s0-20.9,0-20.9h55.4c0,0-27.7,92.4-27.7,92.4h75.1c0-.1,0,20.8,0,20.8l-104.3.2,27.6-92.5Z"/>
  <path class="st0" d="M313.3,35.1h-26.1s0-20.9,0-20.9h55.4c0,0-27.7,92.4-27.7,92.4h75.1c0-.1,0,20.8,0,20.8l-104.3.2,27.6-92.5Z"/>
  <path class="st0" d="M243.2,96l25.4,5.4-3,14.2-40.6-8.6,16.2-76.7,40.6,8.6-3,14.2-25.4-5.4-3.6,17,21.1,4.5-3,14.2-21.1-4.5-3.6,17.1Z"/>
  <path class="st0" d="M364.5,86.9h25.9s0,14.5,0,14.5h-41.5s0-78.4,0-78.4h41.5v14.5h-26s0,17.4,0,17.4h21.6s0,14.6,0,14.6h-21.6s0,17.4,0,17.4Z"/>
  <g>
    <path class="st1" d="M252.4,140c1.8-1.9,3.1-2.7,3.7-2.6.6.2,1.2.5,1.8,1,.6.5.9,1,1,1.7,0,.6.1,1.7.2,3.2,0,1.5.2,2.5.4,3.1.2.6.6,2.4,1.1,5.4.5,3,.7,4.9.8,5.6,0,.7.2,1.7.5,3,.3,1.3,2,1.6,5.1,1,3.1-.7,6.2-1.5,9.2-2.3,3-.8,5.2-1.5,6.7-2,1.4-.5,0,.2-4.6,2.1-4.5,1.9-7.6,3.3-9.4,4.4-1.8,1.1-3.4,2.2-4.8,3.3-1.4,1.1-2.1,2.4-2.2,3.9,0,1.5-.2,3.6-.5,6.2-.3,2.6-.6,5-1,7-.3,2-.6,3.6-.7,4.9-.2,1.3-.6,2.5-1.3,3.7-.7,1.2-1.5,1.9-2.4,2-.9.2-1.6-.1-2.2-.8-.6-.7-.6-2.5-.3-5.3.4-2.8.8-5.3,1.2-7.6.4-2.2.8-4.6,1.1-7.2.4-2.6-.5-3.8-2.5-3.5-2,.3-4.2.6-6.4.9-2.2.3-4.5.6-6.7.9-2.2.3-4.1.8-5.6,1.5-1.5.7-4.1,3.7-7.9,8.8-3.8,5.2-6.2,8.5-7.4,10.1-1.2,1.6-2.2,2.4-3.1,2.4-.9,0-1.6-.3-2-1-.4-.7-.4-1.7,0-3.1.4-1.4,1.8-3.9,4.2-7.6,2.4-3.7,5.2-7.5,8.4-11.5,3.2-3.9,5.9-7.1,8-9.5,2.1-2.4,4-4.8,5.7-7.2,1.7-2.3,3.6-4.9,5.8-7.8,2.2-2.8,4.2-5.2,6-7.1ZM254.7,152.5c-.4-2.8-1.2-3.5-2.3-2.1-1.1,1.4-2.2,2.8-3.2,4.1-1,1.3-2.9,3.6-5.9,6.9-3,3.3-3.2,4.6-.8,4,2.4-.6,5.4-1.1,8.9-1.4,3.5-.4,5.1-1.1,5-2.2-.1-1.1-.3-2.2-.6-3.4-.3-1.1-.7-3.1-1.1-5.9Z"/>
    <path class="st1" d="M284.8,162.6c.9-.3,1.7-.2,2.5.1.8.4,1.3,1.1,1.5,2.1.2,1,0,2.8-.8,5.3-.7,2.5-1.6,5.5-2.7,8.9-1.1,3.4-3,8.3-5.7,14.7-2.7,6.4-4.8,10.7-6.2,13-1.5,2.2-3.1,4.1-5,5.5-1.8,1.4-3.7,2.2-5.5,2.2-1.8,0-3.6-.4-5.2-1.4-1.6-1-2.4-1.9-2.4-2.9,0-1,.9-1,2.7,0,1.8,1,3.4.9,5,0,1.6-1,3.1-2.4,4.5-4.3,1.4-1.9,2.8-4.4,4.3-7.5,1.4-3.2,2.9-7.3,4.5-12.5,1.6-5.2,2.5-8.8,2.8-10.9.3-2-.1-2.8-1.3-2.4-1.2.5-2.5,1.1-4.1,1.9-1.6.8-2.5,1.1-2.7,1-.2-.1.7-.8,3-2,2.2-1.2,4.3-3.3,6.4-6.1,2-2.9,3.5-4.4,4.4-4.7ZM292.2,147.1c1.2-.9,2.7-1,4.4-.4,1.7.6,2.8,1.5,3.4,2.6.6,1.1,1,2.7,1.3,4.8.3,2.1.6,3.9,1,5.5.4,1.5,1.4,3,3.1,4.4,1.6,1.4,1.5,1.4-.5,0-2-1.4-3.4-3.3-4.5-5.8-1-2.5-2-4-3.1-4.6-1-.6-2-.8-2.9-.8s-2,.6-3.4,1.9c-1.4,1.3-2.4,1.3-3,.1-.6-1.2-.8-2.2-.5-3,.2-.8.7-1.7,1.3-2.6.6-.9,1.7-1.6,3.3-2.1Z"/>
    <path class="st1" d="M312.4,162.2c.9-.2,1.9-.3,3-.1,1.1.2,2,.5,2.7,1,.7.5,1.3,1.5,1.9,3.1.6,1.5.3,2.5-.8,3.1-1.1.5-2.2.3-3.1-.5-.9-.9-1.9-1.1-2.9-.5-1,.5-2,1.1-3,1.6-1,.5-2.2,1.4-3.6,2.6-1.4,1.2-2.9,2.6-4.4,4.4-1.5,1.8-2.4,3-2.5,3.5-.2.5.2.4,1.2-.2.9-.6,2.4-1.6,4.3-2.9,1.9-1.3,4.4-2.6,7.3-4,2.9-1.4,4.8-1.9,5.6-1.6.8.3,1.5.8,2,1.6.6.8.9,1.5,1,2.1,0,.6,0,1-.3,1.4-.3.3-.6,1.1-.9,2.3-.3,1.2-.3,2.4,0,3.5.4,1.1.9,1.9,1.5,2.3.6.4,1.5.5,2.6.4,1.1-.2,2.4-1,4-2.5,1.6-1.5,1.5-1.1-.2,1-1.7,2.1-3.1,3.5-4.1,4.1-1,.6-1.8.9-2.3.8-.6,0-1.3-.2-2.2-.5-.9-.3-1.8-.9-2.6-1.6-.8-.7-1.4-1.6-1.9-2.6-.5-1-.8-1.8-.9-2.3-.2-.5-.5-1-1.1-1.6-.6-.6-1.3-.7-2.1-.4-.8.3-2.3,1.3-4.4,2.8-2.1,1.5-4.1,2.8-5.9,3.8-1.8,1-3.4,1.7-4.9,2.1-1.4.4-2.4.5-2.8.4-.4-.1-.9-.6-1.4-1.3-.5-.8-.8-1.6-.9-2.6,0-.9,0-1.9.4-2.8.3-.9,1.6-2.8,3.8-5.7,2.2-2.8,4.4-5.1,6.4-6.9,2.1-1.8,4.2-3.3,6.6-4.6,2.3-1.3,3.9-2,4.9-2.3Z"/>
    <path class="st1" d="M336,163.1c.8-.4,1.9-.3,3.2.2,1.3.6,1.6,1.6.8,3.1-.7,1.5-1.9,4-3.6,7.5-1.7,3.5-1.8,4.5-.5,2.9,1.3-1.6,3-3.2,4.9-4.8,1.9-1.6,3.3-2.7,4.1-3.2.8-.5,1.8-.8,2.7-1.1,1-.2,2.1-.2,3.3.2,1.2.4,2.3,1.4,3.2,3,.9,1.7,1.4,4.4,1.4,8.2,0,3.8,1,5.7,2.8,5.6,1.8,0,3.6-.8,5.3-2,1.7-1.3,3-2.5,3.8-3.8.8-1.3,1.2-1.7,1.1-1.1-.1.6-.6,1.5-1.4,2.6-.8,1.2-2.5,3-5.1,5.4-2.6,2.4-4.9,3.7-6.8,3.7-1.9,0-3.3-.7-4.1-2.3-.9-1.6-1.4-4.1-1.7-7.5-.3-3.4-.7-5.2-1.4-5.2-.6,0-2,.6-4.2,1.9-2.2,1.3-4.1,3.1-5.9,5.3-1.8,2.2-3.3,4-4.4,5.5-1.1,1.5-2.2,2.4-3.1,2.7-.9.3-1.7,0-2.2-.7-.6-.8-.8-1.8-.6-2.9.2-1.2.5-2.9,1-5.3.5-2.4,1.3-4.9,2.2-7.6,1-2.7.7-3.5-.7-2.6-1.4.9-3.1,2.3-5.1,4.2-2,1.9-1.3,1,2.2-2.6,3.5-3.6,5.4-5.7,5.8-6.3.4-.6.8-1.2,1.1-1.7.4-.5,1-1,1.8-1.4Z"/>
    <path class="st1" d="M375.2,162.5c1.6-.8,3.2-1.3,4.8-1.6,1.6-.2,2.6,0,2.9.9.3.8.2,1.7-.5,2.5-.7.8-1.6,1.3-2.7,1.4-1.1.1-2.4.9-3.7,2.5-1.3,1.5-2.1,3.4-2.3,5.5-.2,2.1-.1,3.6.2,4.4.3.8.6,2.4,1,4.7.4,2.3.1,4.3-.7,6-.8,1.7-1.7,2.9-2.7,3.6-1,.8-2.1,1.3-3.6,1.7-1.4.4-2.6.5-3.6.5-1,0-2.1-.2-3.2-.7-1.1-.5-1.8-1.5-2.1-3-.3-1.5,1.8-4.3,6.3-8.4,4.5-4.1,4.8-4.2,1.1-.4-3.8,3.8-5.2,6.2-4.4,7.1.8.9,1.8,1.2,2.9.7,1.1-.4,2-1,2.7-1.8.7-.7,1.1-1.6,1.5-2.7.3-1.1.5-2,.4-2.9,0-.9-.4-2.9-.9-6-.6-3.1-.6-5.4,0-7,.6-1.6,1.4-2.9,2.6-4.1s2.5-2.1,4.1-2.9Z"/>
  </g>
</svg>